<svg width="179" height="44" viewBox="0 0 179 44" fill="none" xmlns="http://www.w3.org/2000/svg">
<path d="M24.906 0L0 44H49.8121L24.906 0ZM18.7437 22.0657L35.4333 28.5015L21.5681 39.403L18.7437 22.0657ZM38.2577 30.3403L44.1633 40.7164H25.1628L38.2577 30.3403ZM24.906 6.69851L35.1766 24.6925L18.487 18.2567L24.906 6.69851ZM15.6626 23.1164L18.487 40.7164H5.64879L15.6626 23.1164Z" fill="#DA2128"/>
<path d="M68.0622 5.30835L73.2164 20.2542L78.3705 5.30835H83.8469V25.818H79.6591V20.2542L80.0886 10.5449L74.6123 25.818H71.7131L66.2368 10.5449L66.6663 20.2542V25.818H62.4785V5.30835H68.0622Z" fill="black"/>
<path d="M99.2018 21.5634H91.9L90.5041 25.818H86.1016L93.6181 5.30835H97.4837L105 25.818H100.598L99.2018 21.5634ZM92.9738 18.1814H98.0206L95.4435 10.5449L92.9738 18.1814Z" fill="black"/>
<path d="M122.607 23.1998C122.392 23.5271 122.07 23.8543 121.64 24.1816C121.211 24.5089 120.674 24.8362 120.03 25.1635C119.385 25.4907 118.634 25.7089 117.775 25.9271C116.916 26.1453 115.949 26.2544 114.875 26.2544C113.587 26.2544 112.406 26.0362 111.332 25.5998C110.258 25.1635 109.292 24.5089 108.54 23.6362C107.788 22.7634 107.144 21.7816 106.715 20.4724C106.285 19.2724 106.07 17.8542 106.07 16.2178V15.0177C106.07 13.3813 106.285 11.9631 106.715 10.7631C107.144 9.56303 107.681 8.47209 108.433 7.59933C109.184 6.72658 110.043 6.07202 111.117 5.63564C112.084 5.19927 113.265 4.98108 114.553 4.98108C115.842 4.98108 117.023 5.19927 117.989 5.52655C118.956 5.85383 119.707 6.29021 120.352 6.94477C120.996 7.59933 121.533 8.2539 121.855 9.12665C122.177 9.9994 122.499 10.8722 122.607 11.854H118.526C118.419 11.3085 118.311 10.8722 118.097 10.4358C117.882 9.9994 117.667 9.67212 117.345 9.34484C117.023 9.01756 116.701 8.79937 116.164 8.69027C115.627 8.58118 115.305 8.36299 114.661 8.36299C113.265 8.36299 112.191 8.90846 111.439 9.9994C110.688 11.0903 110.365 12.7268 110.365 14.9086V16.1087C110.365 18.2905 110.795 19.927 111.547 21.0179C112.406 22.1088 113.479 22.6543 115.09 22.6543C115.627 22.6543 116.057 22.6543 116.379 22.5452C116.701 22.4361 117.023 22.4361 117.345 22.327C117.56 22.2179 117.882 22.1088 117.989 21.9997C118.204 21.8906 118.311 21.7816 118.419 21.6725V18.1815H114.661V15.0177H122.607V23.1998Z" fill="black"/>
<path d="M142.373 25.818H138.185L130.132 12.2904V25.818H125.944V5.30835H130.132L138.293 18.836V5.30835H142.481L142.373 25.818Z" fill="black"/>
<path d="M157.72 21.5634H150.419L149.023 25.818H144.62L152.137 5.30835H156.002L163.519 25.818H159.116L157.72 21.5634ZM151.492 18.1814H156.539L153.962 10.4358L151.492 18.1814Z" fill="black"/>
<path d="M178.986 8.69039H172.758V25.8181H168.57V8.69039H162.449V5.30847H178.878L178.986 8.69039Z" fill="black"/>
<path d="M63.7719 37.6003V40.3276H62.2686V32.691H65.1678C65.5973 32.691 66.0268 32.8001 66.3489 32.9092C66.6711 33.0183 66.9932 33.2365 67.208 33.4547C67.4227 33.6729 67.6375 34.0002 67.7449 34.2184C67.8522 34.5456 67.9596 34.8729 67.9596 35.2002C67.9596 35.5275 67.8522 35.8548 67.7449 36.182C67.6375 36.5093 67.4227 36.7275 67.208 36.9457C66.9932 37.1639 66.6711 37.273 66.3489 37.3821C66.0268 37.4912 65.5973 37.6003 65.1678 37.6003H63.7719ZM63.7719 36.4002H65.1678C65.3825 36.4002 65.5973 36.4002 65.7047 36.2911C65.812 36.182 66.0268 36.182 66.1342 36.073C66.2416 35.9639 66.3489 35.8548 66.3489 35.7457C66.3489 35.6366 66.4563 35.4184 66.4563 35.3093C66.4563 35.2002 66.4563 34.982 66.3489 34.8729C66.3489 34.7638 66.2416 34.5456 66.1342 34.4365C66.0268 34.3275 65.9194 34.2184 65.7047 34.1093C65.5973 34.0002 65.3825 34.0002 65.1678 34.0002H63.7719V36.4002Z" fill="#DA2128"/>
<path d="M71.8222 37.4911H70.641V40.3275H69.1377V32.6909H71.9295C72.3591 32.6909 72.7886 32.6909 73.1107 32.8C73.4328 32.9091 73.755 33.0182 73.9697 33.2364C74.1845 33.4546 74.3992 33.6728 74.5066 34C74.614 34.3273 74.7214 34.6546 74.7214 34.9819C74.7214 35.3092 74.7214 35.5274 74.614 35.7456C74.5066 35.9637 74.5066 36.1819 74.2919 36.291C74.0771 36.4001 74.0771 36.6183 73.8624 36.7274C73.6476 36.8365 73.5402 36.9456 73.3255 37.0547L74.9361 40.2184V40.3275H73.3255L71.8222 37.4911ZM70.641 36.291H71.9295C72.1443 36.291 72.3591 36.291 72.4664 36.1819C72.5738 36.1819 72.7886 36.0728 72.8959 35.9637C73.0033 35.8546 73.1107 35.7456 73.1107 35.6365C73.1107 35.5274 73.2181 35.3092 73.2181 35.2001C73.2181 34.8728 73.1107 34.5455 72.8959 34.3273C72.6812 34.1091 72.3591 34 71.9295 34H70.641V36.291Z" fill="#DA2128"/>
<path d="M81.9144 36.6184C81.9144 37.1639 81.8071 37.7093 81.6997 38.1457C81.5923 38.5821 81.3775 39.0185 81.0554 39.3457C80.7333 39.673 80.4111 39.8912 80.089 40.1094C79.6595 40.3276 79.23 40.3276 78.8005 40.3276C78.3709 40.3276 77.9414 40.2185 77.5119 40.1094C77.0824 40.0003 76.7603 39.673 76.5455 39.3457C76.2234 39.0185 76.0086 38.5821 75.9012 38.1457C75.6865 37.8184 75.5791 37.273 75.5791 36.6184V36.2911C75.5791 35.7456 75.6865 35.2002 75.7939 34.7638C75.9012 34.3274 76.116 33.891 76.4381 33.5638C76.7603 33.2365 77.0824 33.0183 77.4045 32.8001C77.8341 32.5819 78.2636 32.5819 78.6931 32.5819C79.1226 32.5819 79.5521 32.691 79.9816 32.8001C80.4111 33.0183 80.7333 33.2365 80.948 33.5638C81.2702 33.891 81.4849 34.3274 81.5923 34.7638C81.6997 35.2002 81.8071 35.7456 81.8071 36.2911V36.6184H81.9144ZM80.4111 36.2911C80.4111 35.5274 80.3038 34.8729 79.9816 34.4365C79.6595 34.0001 79.3374 33.7819 78.8005 33.7819C78.2636 33.7819 77.8341 34.0001 77.6193 34.4365C77.2972 34.8729 77.1898 35.4184 77.1898 36.2911V36.6184C77.1898 37.0548 77.1898 37.382 77.2972 37.7093C77.4045 38.0366 77.5119 38.2548 77.6193 38.473C77.7267 38.6912 77.9414 38.8003 78.1562 38.9094C78.3709 39.0185 78.5857 39.0185 78.8005 39.0185C79.3374 39.0185 79.7669 38.8003 79.9816 38.3639C80.1964 37.9275 80.4111 37.382 80.4111 36.5093V36.2911Z" fill="#DA2128"/>
<path d="M87.6046 37.1638H84.598V40.3275H83.0947V32.6909H87.9268V34H84.598V35.9637H87.6046V37.1638Z" fill="#DA2128"/>
<path d="M93.4015 37.0548H90.3949V39.1276H93.831V40.4367H88.7842V32.8002H93.831V34.1093H90.3949V35.9639H93.4015V37.0548Z" fill="#DA2128"/>
<path d="M98.6662 38.3639C98.6662 38.2548 98.6662 38.1457 98.5588 38.0366C98.4514 37.9276 98.5588 37.7094 98.3441 37.7094C98.1293 37.7094 98.1293 37.4912 97.9145 37.4912C97.6998 37.4912 97.485 37.273 97.1629 37.1639C96.8408 37.0548 96.5186 36.9457 96.1965 36.8366C95.8743 36.7275 95.6596 36.5093 95.4448 36.2911C95.2301 36.073 95.0153 35.8548 94.9079 35.6366C94.8006 35.4184 94.6932 35.0911 94.6932 34.7638C94.6932 34.4365 94.8006 34.1093 94.9079 33.8911C95.0153 33.6729 95.2301 33.4547 95.4448 33.2365C95.6596 33.0183 95.9817 32.9092 96.3039 32.8001C96.626 32.691 97.0555 32.691 97.3777 32.691C97.8072 32.691 98.1293 32.8001 98.5588 32.9092C98.881 33.0183 99.2031 33.2365 99.4178 33.3456C99.6326 33.5638 99.8474 33.782 99.9547 34.1093C100.062 34.4365 100.169 34.7638 100.169 35.0911H98.6662C98.6662 34.982 98.6662 34.7638 98.5588 34.6547C98.5588 34.5456 98.4514 34.4365 98.3441 34.3274C98.2367 34.2184 98.1293 34.1093 97.9145 34.1093C97.8072 34.1093 97.5924 34.0002 97.3777 34.0002C97.1629 34.0002 96.9481 34.0002 96.8408 34.1093C96.7334 34.1093 96.5186 34.2184 96.5186 34.3274C96.4112 34.4365 96.3039 34.5456 96.3039 34.6547C96.3039 34.7638 96.1965 34.8729 96.1965 34.982C96.1965 35.2002 96.3039 35.4184 96.626 35.6366C96.9481 35.8548 97.2703 35.9639 97.6998 36.073C98.1293 36.182 98.4514 36.2911 98.7736 36.5093C99.0957 36.6184 99.3105 36.8366 99.5252 37.0548C99.74 37.273 99.8474 37.4912 99.9547 37.7094C100.062 37.9276 100.062 38.2548 100.062 38.5821C100.062 38.9094 99.9547 39.2367 99.8474 39.4549C99.74 39.6731 99.5252 39.8912 99.3105 40.1094C99.0957 40.3276 98.7736 40.4367 98.4514 40.5458C98.1293 40.6549 97.6998 40.6549 97.3777 40.6549C97.1629 40.6549 96.8408 40.6549 96.626 40.5458C96.4112 40.4367 96.0891 40.4367 95.8744 40.3276C95.6596 40.2185 95.4448 40.1094 95.2301 40.0003C95.0153 39.8912 94.9079 39.6731 94.6932 39.564C94.5858 39.3458 94.4784 39.1276 94.371 38.9094C94.2637 38.6912 94.2637 38.3639 94.2637 38.1457H95.9817C95.9817 38.3639 95.9817 38.5821 96.0891 38.6912C96.1965 38.8003 96.3039 39.0185 96.4112 39.1276C96.5186 39.2367 96.7334 39.3458 96.8408 39.3458C97.0555 39.3458 97.2703 39.4549 97.485 39.4549C97.6998 39.4549 97.8072 39.4549 98.0219 39.3458C98.2367 39.2367 98.3441 39.2367 98.3441 39.1276C98.4514 39.0185 98.5588 38.9094 98.5588 38.8003C98.6662 38.5821 98.6662 38.473 98.6662 38.3639Z" fill="#DA2128"/>
<path d="M105.114 38.3639C105.114 38.2548 105.114 38.1457 105.006 38.0366C104.899 37.9276 105.006 37.7094 104.899 37.7094C104.791 37.7094 104.684 37.4912 104.469 37.4912C104.254 37.4912 104.04 37.273 103.718 37.1639C103.395 37.0548 103.073 36.9457 102.751 36.8366C102.429 36.7275 102.214 36.5093 102 36.2911C101.785 36.073 101.57 35.8548 101.463 35.6366C101.355 35.4184 101.248 35.0911 101.248 34.7638C101.248 34.4365 101.355 34.1093 101.463 33.8911C101.57 33.6729 101.785 33.4547 102 33.2365C102.214 33.0183 102.536 32.9092 102.859 32.8001C103.181 32.691 103.61 32.691 103.932 32.691C104.362 32.691 104.684 32.8001 105.114 32.9092C105.436 33.0183 105.758 33.2365 105.973 33.3456C106.187 33.5638 106.402 33.782 106.509 34.1093C106.617 34.4365 106.724 34.7638 106.724 35.0911H105.221C105.221 34.982 105.221 34.7638 105.114 34.6547C105.114 34.5456 105.006 34.4365 104.899 34.3274C104.791 34.2184 104.684 34.1093 104.469 34.1093C104.362 34.1093 104.147 34.0002 103.932 34.0002C103.718 34.0002 103.503 34.0002 103.395 34.1093C103.288 34.1093 103.073 34.2184 103.073 34.3274C102.966 34.4365 102.859 34.5456 102.859 34.6547C102.859 34.7638 102.751 34.8729 102.751 34.982C102.751 35.2002 102.859 35.4184 103.181 35.6366C103.503 35.8548 103.825 35.9639 104.254 36.073C104.684 36.182 105.006 36.2911 105.328 36.5093C105.65 36.6184 105.865 36.8366 106.08 37.0548C106.295 37.273 106.402 37.4912 106.509 37.7094C106.617 37.9276 106.617 38.2548 106.617 38.5821C106.617 38.9094 106.509 39.2367 106.402 39.4549C106.295 39.6731 106.08 39.8912 105.865 40.1094C105.65 40.3276 105.328 40.4367 105.006 40.5458C104.684 40.6549 104.254 40.6549 103.932 40.6549C103.718 40.6549 103.395 40.6549 103.181 40.5458C102.966 40.4367 102.644 40.4367 102.429 40.3276C102.214 40.2185 102 40.1094 101.785 40.0003C101.57 39.8912 101.463 39.6731 101.248 39.564C101.14 39.3458 101.033 39.1276 100.926 38.9094C100.818 38.6912 100.818 38.3639 100.818 38.1457H102.322C102.322 38.3639 102.322 38.5821 102.429 38.6912C102.536 38.8003 102.644 39.0185 102.751 39.1276C102.859 39.2367 103.073 39.3458 103.181 39.3458C103.395 39.3458 103.61 39.4549 103.825 39.4549C104.04 39.4549 104.147 39.4549 104.362 39.3458C104.577 39.2367 104.684 39.2367 104.684 39.1276C104.791 39.0185 104.899 38.9094 104.899 38.8003C105.114 38.5821 105.114 38.473 105.114 38.3639Z" fill="#DA2128"/>
<path d="M109.401 40.3276H107.897V32.691H109.401V40.3276Z" fill="#DA2128"/>
<path d="M117.027 36.6184C117.027 37.1639 116.919 37.7093 116.812 38.1457C116.705 38.5821 116.49 39.0185 116.168 39.3457C115.846 39.673 115.523 39.8912 115.201 40.1094C114.772 40.3276 114.342 40.3276 113.913 40.3276C113.483 40.3276 113.054 40.2185 112.624 40.1094C112.195 40.0003 111.873 39.673 111.658 39.3457C111.336 39.0185 111.121 38.5821 111.014 38.1457C110.906 37.7093 110.799 37.1639 110.799 36.6184V36.2911C110.799 35.7456 110.906 35.2002 111.014 34.7638C111.121 34.3274 111.336 33.891 111.658 33.5638C111.98 33.2365 112.302 33.0183 112.624 32.8001C113.054 32.5819 113.483 32.5819 113.913 32.5819C114.342 32.5819 114.772 32.691 115.201 32.8001C115.631 33.0183 115.953 33.2365 116.168 33.5638C116.49 33.891 116.705 34.3274 116.812 34.7638C116.919 35.2002 117.027 35.7456 117.027 36.2911V36.6184ZM115.416 36.2911C115.416 35.5274 115.309 34.8729 114.987 34.4365C114.664 34.0001 114.342 33.7819 113.805 33.7819C113.269 33.7819 112.839 34.0001 112.624 34.4365C112.302 34.8729 112.195 35.4184 112.195 36.2911V36.6184C112.195 37.0548 112.195 37.382 112.302 37.7093C112.41 38.0366 112.517 38.2548 112.624 38.473C112.732 38.6912 112.946 38.8003 113.161 38.9094C113.376 39.0185 113.591 39.0185 113.805 39.0185C114.342 39.0185 114.772 38.8003 114.987 38.3639C115.201 37.9275 115.416 37.382 115.416 36.5093V36.2911Z" fill="#DA2128"/>
<path d="M124.223 40.3275H122.72L119.713 35.3092V40.3275H118.21V32.6909H119.713L122.72 37.7092V32.6909H124.223V40.3275Z" fill="#DA2128"/>
<path d="M129.913 38.6912H127.121L126.584 40.2185H124.974L127.765 32.5819H129.161L131.953 40.2185H130.343L129.913 38.6912ZM127.551 37.4911H129.376L128.41 34.6547L127.551 37.4911Z" fill="#DA2128"/>
<path d="M134.316 39.0185H137.645V40.3276H132.812V32.691H134.316V39.0185Z" fill="#DA2128"/>
</svg>
